<?xml version="1.0" encoding="utf-8"?>
<!-- Generator: Adobe Illustrator 23.1.0, SVG Export Plug-In . SVG Version: 6.00 Build 0)  -->
<svg version="1.1" id="Layer_1" xmlns="http://www.w3.org/2000/svg" xmlns:xlink="http://www.w3.org/1999/xlink" x="0px" y="0px"
	 viewBox="0 0 264 32" style="enable-background:new 0 0 264 32;" xml:space="preserve">
<style type="text/css">
	.st0{fill:#806C5C;}
</style>
<title>mmartan</title>
<path class="st0" d="M0.2,12.8c0-1.9,0-4.3-0.2-6.2h7c0,1.3,0.2,2.6,0.2,4C10,7.2,13,5.6,16.9,5.6c4.5,0,8.3,1.9,10.2,5.6
	c2.6-4.3,6.6-5.6,10.5-5.6c4.5,0,11.3,1.9,11.3,11.5V32h-7.2V18.6c0-6.2-2.6-7.7-6.2-7.7c-3.8,0-7.3,2.8-7.3,9v12h-7.2V18.6
	c0-6.2-2.6-7.7-6.2-7.7c-3.8,0-7.3,2.8-7.3,9v12H0.2L0.2,12.8L0.2,12.8z"/>
<path class="st0" d="M58.5,12.8c0-1.9-0.2-4.3-0.2-6.2h7c0.2,1.3,0.2,2.6,0.2,4c2.8-3.4,5.8-4.9,9.8-4.9c4.5,0,8.3,1.9,10.2,5.6
	C88.1,7,92,5.6,96,5.6c4.5,0,11.3,1.9,11.3,11.5V32h-7.2V18.6c0-6.2-2.6-7.7-6.2-7.7c-3.8,0-7.3,2.8-7.3,9v12h-7.2V18.6
	c0-6.2-2.6-7.7-6.2-7.7c-3.8,0-7.3,2.8-7.3,9v12h-7.2V12.8L58.5,12.8z"/>
<path class="st0" d="M142.9,26.4c0,1.7,0,3,0.2,4.7h-6.8c-0.2-1.1-0.2-2.3-0.2-3.4c-3,3-6.8,4.3-11.7,4.3c-8.7,0-11.5-4-11.5-7.5
	c0-7.7,7.3-9,16.6-9h6c0-4.3-3-5.5-6.8-5.5c-3.6,0-5.6,1.5-6,3.4H115c0.8-6.2,7.5-7.7,13.7-7.7c6.8,0,13.9,1.9,13.9,10.5v10.2H142.9
	z M129.3,20c-5.6,0-8.8,1.1-8.8,4.1c0,1.7,1.3,4,5.6,4c3.6,0,9.2-2.1,9.2-8.1C135.3,20,129.3,20,129.3,20z"/>
<path class="st0" d="M150.8,12.2c0-2.3-0.2-4.3-0.2-6h7.3c0,1.3,0.2,2.8,0.2,4.3l0,0c0.8-1.7,2.4-4.9,8.3-4.9c1.7,0,3,0.2,4.9,0.6
	v5.5c-0.4-0.2-0.9-0.2-1.5-0.2s-1.1-0.2-1.9-0.2c-6.2,0-9.4,2.4-9.4,9v9.8H151V12.2L150.8,12.2z"/>
<path class="st0" d="M185.2,0v7h8.7v5.6h-8.7v10.5c0,2.6,1.1,4.1,4,4.1c1.5,0,3.6-0.2,4.5-0.4v4.7c-1.9,0.2-4.1,0.4-6.2,0.4
	c-7.3,0-9.6-2.4-9.6-8.1V12.6h-4.7V7h4.9V1.7C178.1,1.7,185.2,0,185.2,0z"/>
<path class="st0" d="M227.6,26.4c0,1.7,0,3,0.2,4.7H221c-0.2-1.1-0.2-2.3-0.2-3.4c-3,3-6.8,4.3-11.7,4.3c-8.5,0-11.5-4-11.5-7.5
	c0-7.7,7.3-9,16.6-9h5.8c0-4.3-3-5.5-6.8-5.5c-3.6,0-5.6,1.5-6,3.4h-7.7c0.8-6.2,7.5-7.7,13.7-7.7c6.8,0,13.9,1.9,13.9,10.5v10.2
	H227.6z M214,20c-5.6,0-8.8,1.1-8.8,4.1c0,1.7,1.3,4,5.6,4c3.6,0,9.2-2.1,9.2-8.1C220,20,214,20,214,20z"/>
<path class="st0" d="M235.5,12.6c0-2.3,0-4.3-0.2-6h7c0.2,1.5,0.2,2.8,0.2,4.1l0,0c2.4-3.6,5.6-5.1,10.2-5.1
	c4.3,0,10.9,2.4,10.9,10.7V32h-7.2V18.6c0-6.2-2.6-7.7-6.2-7.7c-3.8,0-7.3,2.8-7.3,9v12h-7.2V12.6L235.5,12.6z"/>
</svg>
